<svg width="59" height="57" viewBox="0 0 59 57" fill="none" xmlns="http://www.w3.org/2000/svg">
<path d="M40.5 13C40.5 19.4073 35.5202 24.5 29.5 24.5C23.4798 24.5 18.5 19.4073 18.5 13C18.5 6.59273 23.4798 1.5 29.5 1.5C35.5202 1.5 40.5 6.59273 40.5 13Z" stroke="black" stroke-width="3"/>
<path d="M57.5 44C57.5 45.3024 56.9073 46.659 55.5996 48.0215C54.2846 49.3915 52.3102 50.6936 49.7548 51.8198C44.648 54.0702 37.4881 55.5 29.5 55.5C21.5119 55.5 14.352 54.0702 9.24524 51.8198C6.68979 50.6936 4.71536 49.3915 3.40044 48.0215C2.09269 46.659 1.5 45.3024 1.5 44C1.5 42.6976 2.09269 41.341 3.40044 39.9785C4.71536 38.6085 6.68979 37.3064 9.24524 36.1802C14.352 33.9298 21.5119 32.5 29.5 32.5C37.4881 32.5 44.648 33.9298 49.7548 36.1802C52.3102 37.3064 54.2846 38.6085 55.5996 39.9785C56.9073 41.341 57.5 42.6976 57.5 44Z" stroke="black" stroke-width="3"/>
</svg>
