<svg width="67" height="40" viewBox="0 0 67 40" fill="none" xmlns="http://www.w3.org/2000/svg">
<rect width="67" height="40" fill="white"/>
<path d="M0.0738637 2.34375L0.386364 0.454545H11.6435L11.331 2.34375H6.79261L4.69034 15H2.50284L4.60511 2.34375H0.0738637ZM24.9123 7.86932C24.6566 9.39867 24.1594 10.7102 23.4208 11.804C22.6869 12.8977 21.7873 13.7382 20.7219 14.3253C19.6613 14.9077 18.5155 15.1989 17.2844 15.1989C16.0013 15.1989 14.9052 14.8935 13.9961 14.2827C13.0917 13.6671 12.4431 12.7936 12.0501 11.6619C11.6571 10.5256 11.5908 9.1714 11.8512 7.59943C12.1069 6.07008 12.6017 4.75852 13.3356 3.66477C14.0742 2.56629 14.9762 1.72348 16.0415 1.13636C17.1116 0.549242 18.2669 0.255681 19.5075 0.255681C20.7811 0.255681 21.8678 0.563446 22.7674 1.17898C23.6718 1.78977 24.3204 2.66572 24.7134 3.80682C25.1064 4.94318 25.1727 6.29735 24.9123 7.86932ZM22.7745 7.59943C22.9686 6.43939 22.945 5.46402 22.7035 4.6733C22.4667 3.87784 22.0619 3.27652 21.489 2.86932C20.9161 2.46212 20.2248 2.25852 19.4151 2.25852C18.5534 2.25852 17.7461 2.47633 16.9933 2.91193C16.2451 3.34754 15.6059 3.98201 15.0756 4.81534C14.5453 5.64867 14.1831 6.66667 13.989 7.86932C13.7901 9.02936 13.8114 10.0047 14.0529 10.7955C14.2944 11.5862 14.7016 12.1851 15.2745 12.5923C15.8522 12.9948 16.5458 13.196 17.3555 13.196C18.2125 13.196 19.015 12.9806 19.7631 12.5497C20.516 12.1141 21.1576 11.482 21.6879 10.6534C22.2182 9.82008 22.5804 8.80208 22.7745 7.59943ZM26.4624 15L28.8771 0.454545H34.0618C35.1887 0.454545 36.0883 0.660511 36.7607 1.07244C37.4377 1.48437 37.9018 2.04545 38.1527 2.75568C38.4084 3.46591 38.4628 4.26847 38.3161 5.16335C38.1645 6.05824 37.8426 6.86316 37.3501 7.57812C36.8625 8.28835 36.2114 8.8518 35.397 9.26847C34.5826 9.6804 33.6143 9.88636 32.4922 9.88636H28.9197L29.2251 8.02557H32.5916C33.3066 8.02557 33.9079 7.90246 34.3956 7.65625C34.888 7.4053 35.2739 7.06439 35.5533 6.63352C35.8326 6.19792 36.0149 5.70786 36.1001 5.16335C36.1901 4.60937 36.1664 4.12169 36.0291 3.70028C35.8918 3.27415 35.6196 2.94034 35.2124 2.69886C34.8099 2.45739 34.2464 2.33665 33.522 2.33665H30.7663L28.657 15H26.4624Z" fill="black"/>
<path d="M22.0966 28.2045C22.0966 27.4233 21.8385 26.8314 21.3224 26.429C20.8063 26.0218 20.108 25.8182 19.2273 25.8182C18.5833 25.8182 18.0033 25.9223 17.4872 26.1307C16.9711 26.339 16.5497 26.6255 16.223 26.9901C15.8963 27.3546 15.6951 27.7689 15.6193 28.233C15.5578 28.6212 15.598 28.955 15.7401 29.2344C15.8821 29.509 16.0833 29.7386 16.3438 29.9233C16.6089 30.1032 16.893 30.2524 17.196 30.3707C17.4991 30.4844 17.7784 30.5767 18.0341 30.6477L19.4545 31.0455C19.8097 31.1449 20.205 31.2822 20.6406 31.4574C21.0762 31.6326 21.4834 31.8717 21.8622 32.1747C22.241 32.473 22.5298 32.8565 22.7287 33.3253C22.9323 33.794 22.9773 34.3693 22.8636 35.0511C22.7311 35.8371 22.4067 36.5473 21.8906 37.1818C21.3793 37.8163 20.7022 38.3205 19.8594 38.6946C19.0213 39.0687 18.0436 39.2557 16.9261 39.2557C15.8845 39.2557 15.0085 39.0876 14.2983 38.7514C13.5928 38.4152 13.072 37.9465 12.7358 37.3452C12.4044 36.7438 12.2765 36.0455 12.3523 35.25H14.1705C14.1231 35.7992 14.232 36.2538 14.4972 36.6136C14.7623 36.9687 15.1316 37.2339 15.6051 37.4091C16.0786 37.5795 16.6042 37.6648 17.1818 37.6648C17.8542 37.6648 18.4744 37.5559 19.0426 37.3381C19.6155 37.1155 20.089 36.8078 20.4631 36.4148C20.8419 36.017 21.0739 35.553 21.1591 35.0227C21.2443 34.5398 21.178 34.1468 20.9602 33.8438C20.7424 33.5407 20.4276 33.2945 20.0156 33.1051C19.6037 32.9157 19.1515 32.75 18.6591 32.608L16.9545 32.0966C15.875 31.7699 15.0535 31.3035 14.4901 30.6974C13.9313 30.0914 13.7301 29.2983 13.8864 28.3182C14.0284 27.5038 14.3717 26.7936 14.9162 26.1875C15.4607 25.5767 16.1354 25.1032 16.9403 24.767C17.7453 24.4261 18.6117 24.2557 19.5398 24.2557C20.4773 24.2557 21.2798 24.4261 21.9474 24.767C22.6151 25.1032 23.1122 25.5696 23.4389 26.1662C23.7656 26.758 23.8864 27.4375 23.8011 28.2045H22.0966ZM25.1062 39L27.521 24.4545H29.2823L28.2028 30.9318H35.9585L37.038 24.4545H38.7994L36.3846 39H34.6232L35.7028 32.4943H27.9471L26.8675 39H25.1062ZM53.3768 31.8409C53.1211 33.3561 52.631 34.6652 51.9066 35.7685C51.1822 36.867 50.2968 37.7145 49.2504 38.3111C48.204 38.9029 47.07 39.1989 45.8484 39.1989C44.5889 39.1989 43.5165 38.8911 42.631 38.2756C41.7504 37.6553 41.1206 36.7794 40.7418 35.6477C40.3678 34.5114 40.3086 33.1667 40.5643 31.6136C40.82 30.0985 41.31 28.7917 42.0344 27.6932C42.7589 26.59 43.6467 25.7424 44.6978 25.1506C45.7489 24.554 46.89 24.2557 48.1211 24.2557C49.3711 24.2557 50.4341 24.5658 51.31 25.1861C52.1907 25.8016 52.8181 26.6776 53.1921 27.8139C53.5709 28.9455 53.6325 30.2879 53.3768 31.8409ZM51.7006 31.6136C51.909 30.3731 51.8782 29.3291 51.6083 28.4815C51.3384 27.634 50.891 26.9924 50.266 26.5568C49.641 26.1212 48.8976 25.9034 48.0359 25.9034C47.1362 25.9034 46.284 26.133 45.479 26.5923C44.6741 27.0469 43.9852 27.7169 43.4123 28.6023C42.8394 29.483 42.4487 30.5625 42.2404 31.8409C42.0321 33.0814 42.0629 34.1255 42.3327 34.973C42.6026 35.8205 43.0501 36.4621 43.6751 36.8977C44.3001 37.3333 45.0434 37.5511 45.9052 37.5511C46.8048 37.5511 47.6571 37.3239 48.462 36.8693C49.2669 36.41 49.9558 35.7401 50.5288 34.8594C51.1017 33.974 51.4923 32.892 51.7006 31.6136ZM55.1452 39L57.56 24.4545H62.4748C63.6112 24.4545 64.5084 24.6581 65.1665 25.0653C65.8294 25.4725 66.2769 26.0241 66.5089 26.7202C66.7456 27.4162 66.793 28.1951 66.6509 29.0568C66.5089 29.9091 66.2035 30.6856 65.7347 31.3864C65.2707 32.0871 64.641 32.6458 63.8455 33.0625C63.0548 33.4792 62.096 33.6875 60.9691 33.6875H57.4464L57.7021 32.125H61.168C61.9445 32.125 62.5932 31.9901 63.114 31.7202C63.6348 31.4503 64.042 31.0833 64.3356 30.6193C64.6291 30.1553 64.8233 29.6345 64.918 29.0568C65.0127 28.4697 64.989 27.9489 64.8469 27.4943C64.7096 27.035 64.4232 26.6752 63.9876 26.4148C63.5567 26.1496 62.9483 26.017 62.1623 26.017H59.0657L56.9066 39H55.1452Z" fill="#A8EF10"/>
</svg>
