<svg width="198" height="176" viewBox="0 0 198 176" fill="none" xmlns="http://www.w3.org/2000/svg">
<path d="M46.6881 34.6088C46.3224 31.6283 48.648 29 51.6509 29H192.59C195.507 29 197.804 31.4858 197.575 34.3931L189.057 142.393C188.852 144.994 186.682 147 184.073 147H64.9003C62.3743 147 60.2451 145.116 59.9375 142.609L46.6881 34.6088Z" fill="#2EED63"/>
<path d="M52 44V40.6841C52 22.7512 35.5792 9.31061 18 12.8548V12.8548" stroke="#2EED63" stroke-width="5"/>
<path d="M172.5 164.5C172.5 169.191 168.096 173.5 162 173.5C155.904 173.5 151.5 169.191 151.5 164.5C151.5 159.809 155.904 155.5 162 155.5C168.096 155.5 172.5 159.809 172.5 164.5Z" stroke="#2EED63" stroke-width="5"/>
<circle cx="11.5" cy="11.5" r="9" stroke="#2EED63" stroke-width="5"/>
<path d="M100.5 164.5C100.5 169.191 96.0959 173.5 90 173.5C83.9041 173.5 79.5 169.191 79.5 164.5C79.5 159.809 83.9041 155.5 90 155.5C96.0959 155.5 100.5 159.809 100.5 164.5Z" stroke="#2EED63" stroke-width="5"/>
<path d="M73.125 58.9574V53.8182H95.2543V58.9574H87.3153V80H81.0767V58.9574H73.125ZM104.663 80.3707C102.601 80.3707 100.828 79.9489 99.3452 79.1051C97.8707 78.2528 96.733 77.0682 95.9318 75.5511C95.1392 74.0256 94.7429 72.2571 94.7429 70.2457C94.7429 68.2259 95.1392 66.4574 95.9318 64.9403C96.733 63.4148 97.8707 62.2301 99.3452 61.3864C100.828 60.5341 102.601 60.108 104.663 60.108C106.726 60.108 108.494 60.5341 109.969 61.3864C111.452 62.2301 112.589 63.4148 113.382 64.9403C114.183 66.4574 114.584 68.2259 114.584 70.2457C114.584 72.2571 114.183 74.0256 113.382 75.5511C112.589 77.0682 111.452 78.2528 109.969 79.1051C108.494 79.9489 106.726 80.3707 104.663 80.3707ZM104.702 75.6534C105.452 75.6534 106.087 75.4233 106.607 74.9631C107.126 74.5028 107.523 73.8636 107.795 73.0455C108.077 72.2273 108.217 71.2812 108.217 70.2074C108.217 69.1165 108.077 68.1619 107.795 67.3438C107.523 66.5256 107.126 65.8864 106.607 65.4261C106.087 64.9659 105.452 64.7358 104.702 64.7358C103.926 64.7358 103.27 64.9659 102.733 65.4261C102.205 65.8864 101.8 66.5256 101.518 67.3438C101.246 68.1619 101.109 69.1165 101.109 70.2074C101.109 71.2812 101.246 72.2273 101.518 73.0455C101.8 73.8636 102.205 74.5028 102.733 74.9631C103.27 75.4233 103.926 75.6534 104.702 75.6534ZM117.786 87.3636V60.3636H123.974V63.7259H124.165C124.421 63.1293 124.783 62.554 125.252 62C125.729 61.446 126.335 60.9943 127.067 60.6449C127.809 60.2869 128.695 60.108 129.727 60.108C131.09 60.108 132.364 60.4659 133.549 61.1818C134.742 61.8977 135.705 63.0014 136.438 64.4929C137.171 65.9844 137.538 67.8849 137.538 70.1946C137.538 72.419 137.184 74.2812 136.477 75.7812C135.778 77.2812 134.832 78.4062 133.638 79.1562C132.454 79.9062 131.137 80.2812 129.688 80.2812C128.7 80.2812 127.843 80.1193 127.119 79.7955C126.394 79.4716 125.785 79.0455 125.29 78.517C124.805 77.9886 124.43 77.4219 124.165 76.8168H124.038V87.3636H117.786ZM123.91 70.1818C123.91 71.2386 124.05 72.1591 124.332 72.9432C124.621 73.7273 125.035 74.3366 125.572 74.7713C126.117 75.1974 126.769 75.4105 127.528 75.4105C128.295 75.4105 128.947 75.1974 129.484 74.7713C130.021 74.3366 130.425 73.7273 130.698 72.9432C130.979 72.1591 131.12 71.2386 131.12 70.1818C131.12 69.125 130.979 68.2088 130.698 67.4332C130.425 66.6577 130.021 66.0568 129.484 65.6307C128.955 65.2045 128.303 64.9915 127.528 64.9915C126.761 64.9915 126.109 65.2003 125.572 65.6179C125.035 66.0355 124.621 66.6321 124.332 67.4077C124.05 68.1832 123.91 69.108 123.91 70.1818Z" fill="white"/>
<path d="M106.134 106.668C106.048 105.73 105.669 105.001 104.996 104.482C104.331 103.953 103.381 103.689 102.145 103.689C101.327 103.689 100.645 103.795 100.099 104.009C99.554 104.222 99.1449 104.516 98.8722 104.891C98.5994 105.257 98.4588 105.679 98.4503 106.156C98.4332 106.548 98.5099 106.893 98.6804 107.192C98.8594 107.49 99.1151 107.754 99.4474 107.984C99.7884 108.206 100.197 108.402 100.675 108.572C101.152 108.743 101.689 108.892 102.286 109.02L104.536 109.531C105.831 109.812 106.973 110.188 107.962 110.656C108.959 111.125 109.794 111.683 110.467 112.331C111.149 112.979 111.665 113.724 112.014 114.568C112.364 115.412 112.543 116.358 112.551 117.406C112.543 119.06 112.125 120.479 111.298 121.663C110.472 122.848 109.283 123.756 107.732 124.386C106.189 125.017 104.327 125.332 102.145 125.332C99.9545 125.332 98.0455 125.004 96.4176 124.348C94.7898 123.692 93.5241 122.695 92.6207 121.357C91.7173 120.018 91.2528 118.327 91.2273 116.281H97.2869C97.3381 117.125 97.5639 117.828 97.9645 118.391C98.3651 118.953 98.9148 119.379 99.6136 119.669C100.321 119.959 101.139 120.104 102.068 120.104C102.92 120.104 103.645 119.989 104.241 119.759C104.847 119.528 105.311 119.209 105.635 118.8C105.959 118.391 106.125 117.922 106.134 117.393C106.125 116.899 105.972 116.477 105.673 116.128C105.375 115.77 104.915 115.463 104.293 115.207C103.679 114.943 102.895 114.7 101.94 114.479L99.2045 113.839C96.9375 113.32 95.152 112.48 93.848 111.321C92.544 110.153 91.8963 108.577 91.9048 106.591C91.8963 104.972 92.331 103.553 93.2088 102.334C94.0866 101.115 95.3011 100.165 96.8523 99.483C98.4034 98.8011 100.172 98.4602 102.158 98.4602C104.186 98.4602 105.946 98.8054 107.438 99.4957C108.938 100.178 110.101 101.136 110.928 102.372C111.754 103.608 112.176 105.04 112.193 106.668H106.134ZM121.999 113.801V125H115.747V98.8182H121.794V108.969H122.011C122.455 107.759 123.179 106.812 124.185 106.131C125.199 105.449 126.439 105.108 127.905 105.108C129.286 105.108 130.487 105.415 131.51 106.028C132.533 106.634 133.325 107.49 133.888 108.598C134.459 109.706 134.74 111.001 134.732 112.484V125H128.48V113.712C128.489 112.621 128.216 111.768 127.662 111.155C127.108 110.541 126.328 110.234 125.322 110.234C124.666 110.234 124.087 110.379 123.584 110.669C123.089 110.95 122.702 111.355 122.42 111.884C122.148 112.412 122.007 113.051 121.999 113.801ZM147.8 125.371C145.738 125.371 143.965 124.949 142.482 124.105C141.007 123.253 139.87 122.068 139.069 120.551C138.276 119.026 137.88 117.257 137.88 115.246C137.88 113.226 138.276 111.457 139.069 109.94C139.87 108.415 141.007 107.23 142.482 106.386C143.965 105.534 145.738 105.108 147.8 105.108C149.863 105.108 151.631 105.534 153.105 106.386C154.588 107.23 155.726 108.415 156.519 109.94C157.32 111.457 157.721 113.226 157.721 115.246C157.721 117.257 157.32 119.026 156.519 120.551C155.726 122.068 154.588 123.253 153.105 124.105C151.631 124.949 149.863 125.371 147.8 125.371ZM147.838 120.653C148.588 120.653 149.223 120.423 149.743 119.963C150.263 119.503 150.659 118.864 150.932 118.045C151.213 117.227 151.354 116.281 151.354 115.207C151.354 114.116 151.213 113.162 150.932 112.344C150.659 111.526 150.263 110.886 149.743 110.426C149.223 109.966 148.588 109.736 147.838 109.736C147.063 109.736 146.407 109.966 145.87 110.426C145.341 110.886 144.936 111.526 144.655 112.344C144.382 113.162 144.246 114.116 144.246 115.207C144.246 116.281 144.382 117.227 144.655 118.045C144.936 118.864 145.341 119.503 145.87 119.963C146.407 120.423 147.063 120.653 147.838 120.653ZM160.923 132.364V105.364H167.11V108.726H167.302C167.558 108.129 167.92 107.554 168.389 107C168.866 106.446 169.471 105.994 170.204 105.645C170.946 105.287 171.832 105.108 172.863 105.108C174.227 105.108 175.501 105.466 176.686 106.182C177.879 106.898 178.842 108.001 179.575 109.493C180.308 110.984 180.674 112.885 180.674 115.195C180.674 117.419 180.321 119.281 179.613 120.781C178.914 122.281 177.968 123.406 176.775 124.156C175.591 124.906 174.274 125.281 172.825 125.281C171.836 125.281 170.98 125.119 170.255 124.795C169.531 124.472 168.922 124.045 168.427 123.517C167.941 122.989 167.566 122.422 167.302 121.817H167.174V132.364H160.923ZM167.047 115.182C167.047 116.239 167.187 117.159 167.468 117.943C167.758 118.727 168.172 119.337 168.708 119.771C169.254 120.197 169.906 120.411 170.664 120.411C171.431 120.411 172.083 120.197 172.62 119.771C173.157 119.337 173.562 118.727 173.835 117.943C174.116 117.159 174.257 116.239 174.257 115.182C174.257 114.125 174.116 113.209 173.835 112.433C173.562 111.658 173.157 111.057 172.62 110.631C172.092 110.205 171.44 109.991 170.664 109.991C169.897 109.991 169.245 110.2 168.708 110.618C168.172 111.036 167.758 111.632 167.468 112.408C167.187 113.183 167.047 114.108 167.047 115.182Z" fill="black"/>
</svg>
