<svg width="260" height="176" viewBox="0 0 260 176" fill="none" xmlns="http://www.w3.org/2000/svg">
<path d="M108.688 34.6088C108.322 31.6283 110.648 29 113.651 29H254.59C257.507 29 259.804 31.4858 259.575 34.3931L251.057 142.393C250.852 144.994 248.682 147 246.073 147H126.9C124.374 147 122.245 145.116 121.937 142.609L108.688 34.6088Z" fill="#2EED63"/>
<path d="M114 44V40.6841C114 22.7512 97.5792 9.31061 80 12.8548V12.8548" stroke="#2EED63" stroke-width="5"/>
<path d="M234.5 164.5C234.5 169.191 230.096 173.5 224 173.5C217.904 173.5 213.5 169.191 213.5 164.5C213.5 159.809 217.904 155.5 224 155.5C230.096 155.5 234.5 159.809 234.5 164.5Z" stroke="#2EED63" stroke-width="5"/>
<circle cx="73.5" cy="11.5" r="9" stroke="#2EED63" stroke-width="5"/>
<path d="M162.5 164.5C162.5 169.191 158.096 173.5 152 173.5C145.904 173.5 141.5 169.191 141.5 164.5C141.5 159.809 145.904 155.5 152 155.5C158.096 155.5 162.5 159.809 162.5 164.5Z" stroke="#2EED63" stroke-width="5"/>
<path d="M135.125 58.9574V53.8182H157.254V58.9574H149.315V80H143.077V58.9574H135.125ZM166.663 80.3707C164.601 80.3707 162.828 79.9489 161.345 79.1051C159.871 78.2528 158.733 77.0682 157.932 75.5511C157.139 74.0256 156.743 72.2571 156.743 70.2457C156.743 68.2259 157.139 66.4574 157.932 64.9403C158.733 63.4148 159.871 62.2301 161.345 61.3864C162.828 60.5341 164.601 60.108 166.663 60.108C168.726 60.108 170.494 60.5341 171.969 61.3864C173.452 62.2301 174.589 63.4148 175.382 64.9403C176.183 66.4574 176.584 68.2259 176.584 70.2457C176.584 72.2571 176.183 74.0256 175.382 75.5511C174.589 77.0682 173.452 78.2528 171.969 79.1051C170.494 79.9489 168.726 80.3707 166.663 80.3707ZM166.702 75.6534C167.452 75.6534 168.087 75.4233 168.607 74.9631C169.126 74.5028 169.523 73.8636 169.795 73.0455C170.077 72.2273 170.217 71.2812 170.217 70.2074C170.217 69.1165 170.077 68.1619 169.795 67.3438C169.523 66.5256 169.126 65.8864 168.607 65.4261C168.087 64.9659 167.452 64.7358 166.702 64.7358C165.926 64.7358 165.27 64.9659 164.733 65.4261C164.205 65.8864 163.8 66.5256 163.518 67.3438C163.246 68.1619 163.109 69.1165 163.109 70.2074C163.109 71.2812 163.246 72.2273 163.518 73.0455C163.8 73.8636 164.205 74.5028 164.733 74.9631C165.27 75.4233 165.926 75.6534 166.702 75.6534ZM179.786 87.3636V60.3636H185.974V63.7259H186.165C186.421 63.1293 186.783 62.554 187.252 62C187.729 61.446 188.335 60.9943 189.067 60.6449C189.809 60.2869 190.695 60.108 191.727 60.108C193.09 60.108 194.364 60.4659 195.549 61.1818C196.742 61.8977 197.705 63.0014 198.438 64.4929C199.171 65.9844 199.538 67.8849 199.538 70.1946C199.538 72.419 199.184 74.2812 198.477 75.7812C197.778 77.2812 196.832 78.4062 195.638 79.1562C194.454 79.9062 193.137 80.2812 191.688 80.2812C190.7 80.2812 189.843 80.1193 189.119 79.7955C188.394 79.4716 187.785 79.0455 187.29 78.517C186.805 77.9886 186.43 77.4219 186.165 76.8168H186.038V87.3636H179.786ZM185.91 70.1818C185.91 71.2386 186.05 72.1591 186.332 72.9432C186.621 73.7273 187.035 74.3366 187.572 74.7713C188.117 75.1974 188.769 75.4105 189.528 75.4105C190.295 75.4105 190.947 75.1974 191.484 74.7713C192.021 74.3366 192.425 73.7273 192.698 72.9432C192.979 72.1591 193.12 71.2386 193.12 70.1818C193.12 69.125 192.979 68.2088 192.698 67.4332C192.425 66.6577 192.021 66.0568 191.484 65.6307C190.955 65.2045 190.303 64.9915 189.528 64.9915C188.761 64.9915 188.109 65.2003 187.572 65.6179C187.035 66.0355 186.621 66.6321 186.332 67.4077C186.05 68.1832 185.91 69.108 185.91 70.1818Z" fill="white"/>
<path d="M168.134 106.668C168.048 105.73 167.669 105.001 166.996 104.482C166.331 103.953 165.381 103.689 164.145 103.689C163.327 103.689 162.645 103.795 162.099 104.009C161.554 104.222 161.145 104.516 160.872 104.891C160.599 105.257 160.459 105.679 160.45 106.156C160.433 106.548 160.51 106.893 160.68 107.192C160.859 107.49 161.115 107.754 161.447 107.984C161.788 108.206 162.197 108.402 162.675 108.572C163.152 108.743 163.689 108.892 164.286 109.02L166.536 109.531C167.831 109.812 168.973 110.188 169.962 110.656C170.959 111.125 171.794 111.683 172.467 112.331C173.149 112.979 173.665 113.724 174.014 114.568C174.364 115.412 174.543 116.358 174.551 117.406C174.543 119.06 174.125 120.479 173.298 121.663C172.472 122.848 171.283 123.756 169.732 124.386C168.189 125.017 166.327 125.332 164.145 125.332C161.955 125.332 160.045 125.004 158.418 124.348C156.79 123.692 155.524 122.695 154.621 121.357C153.717 120.018 153.253 118.327 153.227 116.281H159.287C159.338 117.125 159.564 117.828 159.964 118.391C160.365 118.953 160.915 119.379 161.614 119.669C162.321 119.959 163.139 120.104 164.068 120.104C164.92 120.104 165.645 119.989 166.241 119.759C166.847 119.528 167.311 119.209 167.635 118.8C167.959 118.391 168.125 117.922 168.134 117.393C168.125 116.899 167.972 116.477 167.673 116.128C167.375 115.77 166.915 115.463 166.293 115.207C165.679 114.943 164.895 114.7 163.94 114.479L161.205 113.839C158.938 113.32 157.152 112.48 155.848 111.321C154.544 110.153 153.896 108.577 153.905 106.591C153.896 104.972 154.331 103.553 155.209 102.334C156.087 101.115 157.301 100.165 158.852 99.483C160.403 98.8011 162.172 98.4602 164.158 98.4602C166.186 98.4602 167.946 98.8054 169.438 99.4957C170.938 100.178 172.101 101.136 172.928 102.372C173.754 103.608 174.176 105.04 174.193 106.668H168.134ZM183.999 113.801V125H177.747V98.8182H183.794V108.969H184.011C184.455 107.759 185.179 106.812 186.185 106.131C187.199 105.449 188.439 105.108 189.905 105.108C191.286 105.108 192.487 105.415 193.51 106.028C194.533 106.634 195.325 107.49 195.888 108.598C196.459 109.706 196.74 111.001 196.732 112.484V125H190.48V113.712C190.489 112.621 190.216 111.768 189.662 111.155C189.108 110.541 188.328 110.234 187.322 110.234C186.666 110.234 186.087 110.379 185.584 110.669C185.089 110.95 184.702 111.355 184.42 111.884C184.148 112.412 184.007 113.051 183.999 113.801ZM209.8 125.371C207.738 125.371 205.965 124.949 204.482 124.105C203.007 123.253 201.87 122.068 201.069 120.551C200.276 119.026 199.88 117.257 199.88 115.246C199.88 113.226 200.276 111.457 201.069 109.94C201.87 108.415 203.007 107.23 204.482 106.386C205.965 105.534 207.738 105.108 209.8 105.108C211.863 105.108 213.631 105.534 215.105 106.386C216.588 107.23 217.726 108.415 218.519 109.94C219.32 111.457 219.721 113.226 219.721 115.246C219.721 117.257 219.32 119.026 218.519 120.551C217.726 122.068 216.588 123.253 215.105 124.105C213.631 124.949 211.863 125.371 209.8 125.371ZM209.838 120.653C210.588 120.653 211.223 120.423 211.743 119.963C212.263 119.503 212.659 118.864 212.932 118.045C213.213 117.227 213.354 116.281 213.354 115.207C213.354 114.116 213.213 113.162 212.932 112.344C212.659 111.526 212.263 110.886 211.743 110.426C211.223 109.966 210.588 109.736 209.838 109.736C209.063 109.736 208.407 109.966 207.87 110.426C207.341 110.886 206.936 111.526 206.655 112.344C206.382 113.162 206.246 114.116 206.246 115.207C206.246 116.281 206.382 117.227 206.655 118.045C206.936 118.864 207.341 119.503 207.87 119.963C208.407 120.423 209.063 120.653 209.838 120.653ZM222.923 132.364V105.364H229.11V108.726H229.302C229.558 108.129 229.92 107.554 230.389 107C230.866 106.446 231.471 105.994 232.204 105.645C232.946 105.287 233.832 105.108 234.863 105.108C236.227 105.108 237.501 105.466 238.686 106.182C239.879 106.898 240.842 108.001 241.575 109.493C242.308 110.984 242.674 112.885 242.674 115.195C242.674 117.419 242.321 119.281 241.613 120.781C240.914 122.281 239.968 123.406 238.775 124.156C237.591 124.906 236.274 125.281 234.825 125.281C233.836 125.281 232.98 125.119 232.255 124.795C231.531 124.472 230.922 124.045 230.427 123.517C229.941 122.989 229.566 122.422 229.302 121.817H229.174V132.364H222.923ZM229.047 115.182C229.047 116.239 229.187 117.159 229.468 117.943C229.758 118.727 230.172 119.337 230.708 119.771C231.254 120.197 231.906 120.411 232.664 120.411C233.431 120.411 234.083 120.197 234.62 119.771C235.157 119.337 235.562 118.727 235.835 117.943C236.116 117.159 236.257 116.239 236.257 115.182C236.257 114.125 236.116 113.209 235.835 112.433C235.562 111.658 235.157 111.057 234.62 110.631C234.092 110.205 233.44 109.991 232.664 109.991C231.897 109.991 231.245 110.2 230.708 110.618C230.172 111.036 229.758 111.632 229.468 112.408C229.187 113.183 229.047 114.108 229.047 115.182Z" fill="black"/>
<line x1="4.99728" y1="53" x2="97.0027" y2="53" stroke="#2EED63" stroke-width="3"/>
<line x1="42.9815" y1="78.5" x2="97.0185" y2="78.5" stroke="#2EED63" stroke-width="3"/>
<line x1="25" y1="103.5" x2="97" y2="103.5" stroke="#2EED63" stroke-width="3"/>
<line y1="128.5" x2="100" y2="128.5" stroke="#2EED63" stroke-width="3"/>
</svg>
