<svg width="50" height="50" viewBox="0 0 50 50" fill="none" xmlns="http://www.w3.org/2000/svg">
<circle cx="25" cy="25" r="25" fill="#FC2323"/>
<path d="M27 13.7273L26.7727 30.4545H24.1364L23.9091 13.7273H27ZM25.4545 37.1818C24.8939 37.1818 24.4129 36.9811 24.0114 36.5795C23.6098 36.178 23.4091 35.697 23.4091 35.1364C23.4091 34.5758 23.6098 34.0947 24.0114 33.6932C24.4129 33.2917 24.8939 33.0909 25.4545 33.0909C26.0152 33.0909 26.4962 33.2917 26.8977 33.6932C27.2992 34.0947 27.5 34.5758 27.5 35.1364C27.5 35.5076 27.4053 35.8485 27.2159 36.1591C27.0341 36.4697 26.7879 36.7197 26.4773 36.9091C26.1742 37.0909 25.8333 37.1818 25.4545 37.1818Z" fill="white"/>
</svg>
